<svg width="38" height="30" viewBox="0 0 38 30" fill="none" xmlns="http://www.w3.org/2000/svg">
<path d="M23.4375 17.5H14.0625C13.6481 17.5 13.2507 17.6317 12.9576 17.8661C12.6646 18.1005 12.5 18.4185 12.5 18.75C12.5 19.0815 12.6646 19.3995 12.9576 19.6339C13.2507 19.8683 13.6481 20 14.0625 20H23.4375C23.8519 20 24.2493 19.8683 24.5424 19.6339C24.8354 19.3995 25 19.0815 25 18.75C25 18.4185 24.8354 18.1005 24.5424 17.8661C24.2493 17.6317 23.8519 17.5 23.4375 17.5ZM23.4375 12.5H17.1875C16.7731 12.5 16.3757 12.6317 16.0826 12.8661C15.7896 13.1005 15.625 13.4185 15.625 13.75C15.625 14.0815 15.7896 14.3995 16.0826 14.6339C16.3757 14.8683 16.7731 15 17.1875 15H23.4375C23.8519 15 24.2493 14.8683 24.5424 14.6339C24.8354 14.3995 25 14.0815 25 13.75C25 13.4185 24.8354 13.1005 24.5424 12.8661C24.2493 12.6317 23.8519 12.5 23.4375 12.5ZM26.5625 5H24.7188C24.3964 4.27056 23.7999 3.63875 23.011 3.19117C22.2222 2.7436 21.2796 2.50217 20.3125 2.5H17.1875C16.2204 2.50217 15.2778 2.7436 14.489 3.19117C13.7001 3.63875 13.1036 4.27056 12.7813 5H10.9375C9.6943 5 8.50201 5.39509 7.62294 6.09835C6.74386 6.80161 6.25 7.75544 6.25 8.75V23.75C6.25 24.7446 6.74386 25.6984 7.62294 26.4017C8.50201 27.1049 9.6943 27.5 10.9375 27.5H26.5625C27.8057 27.5 28.998 27.1049 29.8771 26.4017C30.7561 25.6984 31.25 24.7446 31.25 23.75V8.75C31.25 7.75544 30.7561 6.80161 29.8771 6.09835C28.998 5.39509 27.8057 5 26.5625 5ZM15.625 6.25C15.625 5.91848 15.7896 5.60054 16.0826 5.36612C16.3757 5.1317 16.7731 5 17.1875 5H20.3125C20.7269 5 21.1243 5.1317 21.4174 5.36612C21.7104 5.60054 21.875 5.91848 21.875 6.25V7.5H15.625V6.25ZM28.125 23.75C28.125 24.0815 27.9604 24.3995 27.6674 24.6339C27.3743 24.8683 26.9769 25 26.5625 25H10.9375C10.5231 25 10.1257 24.8683 9.83265 24.6339C9.53962 24.3995 9.375 24.0815 9.375 23.75V8.75C9.375 8.41848 9.53962 8.10054 9.83265 7.86612C10.1257 7.6317 10.5231 7.5 10.9375 7.5H12.5V8.75C12.5 9.08152 12.6646 9.39946 12.9576 9.63388C13.2507 9.8683 13.6481 10 14.0625 10H23.4375C23.8519 10 24.2493 9.8683 24.5424 9.63388C24.8354 9.39946 25 9.08152 25 8.75V7.5H26.5625C26.9769 7.5 27.3743 7.6317 27.6674 7.86612C27.9604 8.10054 28.125 8.41848 28.125 8.75V23.75Z" fill="#00A1DB"/>
</svg>
