<svg width="50" height="50" viewBox="0 0 50 50" fill="none" xmlns="http://www.w3.org/2000/svg">
<g clip-path="url(#clip0_40_147)">
<g opacity="0.98">
<path d="M50 25C50 38.8063 38.8063 50 25 50C11.1937 50 0 38.8063 0 25C0 11.1937 11.1937 0 25 0C38.8063 0 50 11.1937 50 25Z" fill="#59ADA4"/>
<path d="M19.2766 12.8877C19.0172 12.8877 18.7562 13.1486 18.7562 13.5393C18.7562 13.8002 19.0172 14.0596 19.2766 14.0596C19.6672 14.0596 20.0578 14.4502 20.0578 14.8408C20.0578 15.2314 19.6672 15.6221 19.2766 15.6221H19.1469C18.1047 15.6221 17.3234 16.4033 17.3234 17.4471C17.3234 18.4877 18.1047 19.2705 19.1469 19.2705C19.5375 19.2705 19.9281 19.6611 19.9281 20.0518C19.9281 20.4424 19.5375 20.833 19.1469 20.833C19.012 20.8425 18.8851 20.9003 18.7895 20.9959C18.6939 21.0915 18.636 21.2184 18.6266 21.3533C18.6266 21.6143 18.8859 21.8752 19.1469 21.8752C20.1891 21.8752 20.9703 21.0939 20.9703 20.0518C20.9703 19.0096 20.1891 18.2283 19.1469 18.2283H19.0172C18.6266 18.2283 18.2359 17.8377 18.2359 17.4471C18.2359 17.0564 18.4953 16.6658 18.8859 16.6658H19.0172C20.0578 16.6658 20.8406 15.8846 20.8406 14.8424C20.8406 13.8002 20.3187 12.8893 19.2781 12.8893L19.2766 12.8877ZM24.0953 12.8877C23.8359 12.8877 23.575 13.1486 23.7047 13.5393C23.7047 13.8002 23.9656 14.0596 24.2266 14.0596C24.6172 14.0596 25.0078 14.4502 25.0078 14.8408C25.0078 15.2314 24.6172 15.6221 24.2266 15.6221H24.0953C23.0547 15.6221 22.2719 16.4033 22.2719 17.4471C22.2719 18.4877 23.0531 19.2705 24.0953 19.2705C24.4859 19.2705 24.8766 19.6611 24.8766 20.0518C24.8766 20.4424 24.4859 20.833 24.0953 20.833C23.9604 20.8425 23.8335 20.9003 23.7379 20.9959C23.6423 21.0915 23.5844 21.2184 23.575 21.3533C23.575 21.6143 23.8359 21.8752 24.0953 21.8752C25.1375 21.8752 25.9187 21.0939 25.9187 20.0518C25.9187 19.0096 25.1375 18.2283 24.0953 18.2283H23.9656C23.575 18.2283 23.1844 17.8377 23.1844 17.4471C23.1844 17.0564 23.4453 16.6658 23.9656 16.6658H24.0953C25.1375 16.6658 25.9187 15.8846 25.9187 14.8424C25.9187 13.8002 25.2687 12.8877 24.0953 12.8877ZM29.3047 12.8877C29.0453 12.8877 28.7844 13.1486 28.9141 13.5393C28.9141 13.8002 29.175 14.0596 29.4359 14.0596C29.8266 14.0596 30.2172 14.4502 30.2172 14.8408C30.2172 15.2314 29.8266 15.6221 29.4359 15.6221H29.3047C28.264 15.6221 27.4828 16.4033 27.4828 17.4471C27.4828 18.4877 28.264 19.2705 29.3047 19.2705C29.6953 19.2705 30.0859 19.6611 30.0859 20.0518C30.0859 20.4424 29.6953 20.833 29.3047 20.833C29.1698 20.8425 29.0429 20.9003 28.9473 20.9959C28.8517 21.0915 28.7938 21.2184 28.7844 21.3533C28.7844 21.6143 29.0453 21.8752 29.3047 21.8752C30.3469 21.8752 31.1281 21.0939 31.1281 20.0518C31.1281 19.0096 30.3469 18.2283 29.3047 18.2283H29.175C28.7844 18.2283 28.3937 17.8377 28.3937 17.4471C28.3937 17.0564 28.7844 16.6658 29.175 16.6658H29.4359C30.4781 16.6658 31.2594 15.8846 31.2594 14.8424C31.2594 13.8002 30.4781 12.8893 29.3062 12.8893C29.4359 12.8893 29.4359 12.8893 29.3062 12.8893L29.3047 12.8877ZM37.9016 15.3627C37.6406 15.3627 37.3797 15.3627 37.25 15.4924C36.2078 15.7533 34.9062 16.6643 33.9937 18.4877C32.9516 20.8314 31.9094 21.7439 31.1281 22.2658C30.7375 22.3955 30.4781 22.5252 30.0875 22.6564C29.4359 22.7861 28.9156 22.7861 28.1344 22.7861H12.5031C12.2422 22.9158 12.1125 23.0471 12.1125 23.3064V25.6518C13.1547 29.2986 15.7594 32.4236 19.275 33.8549V36.5924C19.275 36.8533 19.5359 37.1143 19.7969 37.1143H29.1734C29.3088 37.1051 29.4363 37.0472 29.5323 36.9512C29.6282 36.8553 29.6862 36.7278 29.6953 36.5924V33.858C32.95 32.4252 35.6859 29.4299 36.7266 25.6533C36.7266 25.5221 36.8578 25.5221 36.8578 25.3924V23.308C36.8483 23.1729 36.7902 23.0458 36.6943 22.9501C36.5984 22.8545 36.4711 22.7968 36.3359 22.7877H33.0812C33.9922 22.2674 34.6437 21.6158 35.1641 20.9643C36.4672 19.4018 37.2484 17.9689 40.1141 17.708H41.6766C41.9375 17.8393 42.1969 17.708 42.3281 17.5783C42.3867 17.4386 42.3925 17.2823 42.3445 17.1386C42.2965 16.9949 42.198 16.8735 42.0672 16.7971C41.2859 16.2752 39.5922 15.1033 37.9 15.3643L37.9016 15.3627ZM13.2859 23.8283H36.0781V24.8705H13.2859V23.8283Z" fill="white"/>
</g>
</g>
<defs>
<clipPath id="clip0_40_147">
<rect width="50" height="50" fill="white"/>
</clipPath>
</defs>
</svg>
