<svg width="50" height="46" viewBox="0 0 50 46" fill="none" xmlns="http://www.w3.org/2000/svg">
<path d="M45.7607 18.0723C47.7231 19.9132 49.087 22.3018 49.6753 24.928C50.2637 27.5543 50.0493 30.2969 49.06 32.7997C48.0707 35.3025 46.3522 37.4499 44.1276 38.9631C41.9031 40.4764 39.2752 41.2855 36.5851 41.2855C33.8951 41.2855 31.2672 40.4764 29.0426 38.9631C26.8181 37.4499 25.0996 35.3025 24.1103 32.7997C23.121 30.2969 22.9066 27.5543 23.495 24.928C24.0833 22.3018 25.4472 19.9132 27.4096 18.0723C26.7206 16.6242 26.3562 15.0429 26.3419 13.4391C26.3419 7.98517 30.9362 4.71387 36.5851 4.71387C42.2341 4.71387 46.8284 7.98517 46.8284 13.4391C46.8141 15.0429 46.4497 16.6242 45.7607 18.0723ZM43.2545 16.2145C43.6043 15.3306 43.7887 14.3898 43.7985 13.4391C43.7985 9.67944 40.5622 7.78723 36.5851 7.78723C32.6081 7.78723 29.3729 9.67944 29.3729 13.4391C29.3827 14.3897 29.5667 15.3304 29.9158 16.2145C31.9468 15.0528 34.2457 14.4417 36.5851 14.4417C38.9246 14.4417 41.2235 15.0528 43.2545 16.2145Z" fill="#59ADA4"/>
<path d="M22.6669 38.8852V39.1832C22.6669 39.4418 22.616 39.698 22.5171 39.937C22.4182 40.176 22.2732 40.3931 22.0904 40.576C21.9075 40.7589 21.6905 40.904 21.4516 41.003C21.2128 41.102 20.9568 41.1529 20.6982 41.1528H1.96865C1.71008 41.153 1.45402 41.1021 1.21511 41.0032C0.976201 40.9043 0.759123 40.7592 0.576289 40.5762C0.393455 40.3933 0.248451 40.1761 0.149567 39.9371C0.0506831 39.6981 -0.000141038 39.4419 2.93952e-07 39.1832V38.8852C-4.20767e-05 38.6265 0.0508496 38.3704 0.149768 38.1314C0.248687 37.8924 0.393695 37.6752 0.576509 37.4923C0.759324 37.3094 0.976363 37.1643 1.21523 37.0654C1.4541 36.9664 1.71011 36.9155 1.96865 36.9155H20.6982C21.2203 36.9156 21.721 37.1232 22.0902 37.4925C22.4593 37.8619 22.6668 38.3628 22.6669 38.8852Z" fill="#59ADA4"/>
<path d="M20.6982 4.84717H1.96865C0.881394 4.84717 0 5.72902 0 6.81683V7.11481C0 8.20263 0.881394 9.08447 1.96865 9.08447H20.6982C21.7855 9.08447 22.6669 8.20263 22.6669 7.11481V6.81683C22.6669 5.72902 21.7855 4.84717 20.6982 4.84717Z" fill="#59ADA4"/>
<path d="M20.6983 43.2324V43.5303C20.6982 44.0527 20.4908 44.5536 20.1216 44.923C19.7524 45.2924 19.2518 45.4999 18.7297 45.5H3.9374C3.67886 45.5 3.42285 45.4491 3.18398 45.3502C2.94511 45.2512 2.72807 45.1061 2.54526 44.9232C2.36245 44.7403 2.21744 44.5231 2.11852 44.2841C2.0196 44.0452 1.96871 43.789 1.96875 43.5303V43.2324C1.96861 42.9737 2.01943 42.7175 2.11832 42.4784C2.2172 42.2394 2.3622 42.0222 2.54504 41.8393C2.72787 41.6563 2.94495 41.5113 3.18386 41.4123C3.42277 41.3134 3.67883 41.2626 3.9374 41.2627H18.7297C18.9882 41.2626 19.2442 41.3136 19.4831 41.4125C19.722 41.5115 19.939 41.6566 20.1218 41.8395C20.3046 42.0224 20.4496 42.2396 20.5486 42.4785C20.6475 42.7175 20.6984 42.9737 20.6983 43.2324ZM20.6983 2.46966V2.76764C20.6984 3.02631 20.6475 3.28246 20.5486 3.52145C20.4496 3.76044 20.3046 3.97759 20.1218 4.1605C19.939 4.34341 19.722 4.48849 19.4831 4.58746C19.2442 4.68643 18.9882 4.73735 18.7297 4.73731H3.9374C3.67883 4.73745 3.42277 4.6866 3.18386 4.58766C2.94495 4.48873 2.72787 4.34365 2.54504 4.16072C2.3622 3.97779 2.2172 3.7606 2.11832 3.52157C2.01943 3.28253 1.96861 3.02634 1.96875 2.76764V2.46966C1.96871 2.21099 2.0196 1.95485 2.11852 1.71586C2.21744 1.47687 2.36245 1.25972 2.54526 1.07681C2.72807 0.893898 2.94511 0.748815 3.18398 0.649845C3.42285 0.550876 3.67886 0.499958 3.9374 0.5H18.7297C19.2518 0.500086 19.7524 0.707631 20.1216 1.077C20.4908 1.44636 20.6982 1.9473 20.6983 2.46966Z" fill="#59ADA4"/>
<path d="M14.8559 9.14893H7.8103V36.8598H14.8559V9.14893Z" fill="#59ADA4"/>
<path d="M34.9818 36.9933C34.9267 36.9933 34.8718 36.988 34.8177 36.9775C32.5537 36.5371 30.5348 35.2688 29.1547 33.42C27.7746 31.5711 27.1322 29.2742 27.3529 26.9771C27.5736 24.6801 28.6415 22.5477 30.3483 20.9957C32.0551 19.4437 34.2786 18.5834 36.585 18.5825C36.8131 18.5825 37.0319 18.6732 37.1932 18.8346C37.3545 18.996 37.4451 19.2149 37.4451 19.4431C37.4451 19.6713 37.3545 19.8902 37.1932 20.0516C37.0319 20.213 36.8131 20.3037 36.585 20.3037C34.7055 20.3033 32.8934 21.0035 31.5021 22.2677C30.1108 23.532 29.2402 25.2695 29.0603 27.1413C28.8803 29.0131 29.4039 30.8848 30.5288 32.3912C31.6537 33.8976 33.2992 34.9306 35.1442 35.2886C35.3545 35.3289 35.5421 35.4462 35.6705 35.6176C35.799 35.789 35.8589 36.0021 35.8386 36.2153C35.8183 36.4285 35.7193 36.6265 35.561 36.7706C35.4026 36.9147 35.1962 36.9945 34.9821 36.9944L34.9818 36.9933Z" fill="#59ADA4"/>
</svg>
