<svg width="30" height="30" viewBox="0 0 30 30" fill="none" xmlns="http://www.w3.org/2000/svg">
<path d="M11.7174 8.00962C10.6295 8.05193 9.64707 8.44006 9.12151 8.96574C8.87745 9.20987 8.4817 9.20987 8.23764 8.96581C7.99351 8.72181 7.99345 8.32606 8.23751 8.08193C9.04839 7.27093 10.368 6.81118 11.6688 6.76056C12.9781 6.70962 14.4076 7.06812 15.4086 8.06937C15.6526 8.31343 15.6526 8.70918 15.4085 8.95325C15.1645 9.19731 14.7687 9.19725 14.5246 8.95318C13.8428 8.27112 12.7968 7.96762 11.7174 8.00962Z" fill="#59ADA4"/>
<path fill-rule="evenodd" clip-rule="evenodd" d="M17.1151 18.0847C15.7004 19.2797 13.8718 20 11.875 20C7.38769 20 3.75 16.3623 3.75 11.875C3.75 7.38769 7.38769 3.75 11.875 3.75C16.3623 3.75 20 7.38769 20 11.875C20 13.8718 19.2797 15.7004 18.0847 17.1151L19.4651 16.875L25.8924 23.3023C26.3692 23.7791 26.3692 24.5522 25.8924 25.029L25.029 25.8924C24.5522 26.3692 23.7791 26.3692 23.3023 25.8924L16.875 19.4651L17.1151 18.0847ZM18.75 11.875C18.75 15.6719 15.6719 18.75 11.875 18.75C8.07806 18.75 5 15.6719 5 11.875C5 8.07806 8.07806 5 11.875 5C15.6719 5 18.75 8.07806 18.75 11.875ZM23.2804 22.4581L19.04 18.2177L18.3395 18.3395L18.2177 19.04L22.4706 23.2929L23.2804 22.4581ZM23.3546 24.1769L24.1656 24.988L24.988 24.1656L24.1644 23.3421L23.3546 24.1769Z" fill="#59ADA4"/>
</svg>
