<svg width="50" height="50" viewBox="0 0 50 50" fill="none" xmlns="http://www.w3.org/2000/svg">
<path d="M35.1562 25H36.7188V29.6875H35.1562V25ZM10.9375 29.6875H24.375L19.6875 25H10.9375V29.6875Z" fill="#59ADA4"/>
<path d="M35.5957 5.86914C35.5566 5.84961 35.5273 5.83008 35.498 5.81055C34.4336 5.22461 33.3008 4.76563 32.1387 4.36523L31.6113 4.18945C29.5215 3.52539 27.3047 3.125 25 3.125C12.9199 3.125 3.125 12.9199 3.125 25C3.125 33.2324 7.67578 40.3906 14.3945 44.1211C14.4336 44.1406 14.4629 44.1699 14.502 44.1895C15.5664 44.7754 16.6992 45.2344 17.8613 45.6348L18.3887 45.8105C20.4785 46.4746 22.6855 46.875 25 46.875C37.0801 46.875 46.875 37.0801 46.875 25C46.875 16.7676 42.3242 9.59961 35.5957 5.86914ZM25 41.6406C24.0918 41.6406 23.2031 41.5527 22.3438 41.4062C21.3867 41.25 20.459 41.0059 19.5605 40.6934C19.375 40.6348 19.1895 40.5762 19.0137 40.5078C18.3789 40.2637 17.7539 39.9902 17.1582 39.668C11.9238 36.8652 8.35938 31.3477 8.35938 24.9902C8.35938 21.3574 9.57031 18.0176 11.5527 15.2832L34.7168 38.4473C31.9727 40.4297 28.6328 41.6406 25 41.6406ZM38.457 34.707L15.293 11.543C18.0273 9.57031 21.3574 8.35938 25 8.35938C25.9082 8.35938 26.7871 8.44727 27.6563 8.59375C28.6133 8.75 29.541 8.99414 30.4395 9.30664C30.6152 9.36523 30.8008 9.42383 30.9863 9.49219C31.5918 9.72656 32.1777 9.98047 32.7441 10.2832C38.0371 13.0664 41.6504 18.6133 41.6504 25.0098C41.6406 28.6426 40.4297 31.9727 38.457 34.707Z" fill="#59ADA4"/>
<path d="M34.375 29.1016V25H30.2734L34.375 29.1016ZM37.5 25H39.0625V29.6875H37.5V25ZM35.166 20.7715C34.3066 20.3711 33.0176 20.2148 30.7129 20.2148H30.3613C29.1211 20.2246 28.8086 20.2051 28.4082 19.6191C28.1348 19.209 28.3105 18.1738 28.7695 17.4805C28.9258 17.2461 28.9453 16.9336 28.8086 16.6797C28.6719 16.4258 28.4082 16.2695 28.125 16.2598C28.1152 16.2598 27.207 16.25 26.3379 15.8789C25.3027 15.4395 24.8145 14.6973 24.8145 13.623C24.8145 11.1035 26.9434 10.918 27.041 10.918V9.35547C25.8691 9.35547 23.252 10.4297 23.252 13.623C23.252 15.332 24.1309 16.6504 25.7617 17.334C26.1719 17.5 26.582 17.6172 26.9336 17.6855C26.6113 18.6426 26.582 19.7266 27.0996 20.4883C27.9785 21.7871 29.082 21.7773 30.3516 21.7676H30.6934C33.2617 21.7676 34.0723 21.9922 34.4922 22.1875C35.0488 22.4414 35.1562 23.3105 35.1367 24.1113V24.209H36.6992V24.1113C36.6992 23.418 36.7285 21.4941 35.166 20.7715Z" fill="#59ADA4"/>
<path d="M39.0625 24.2188C39.0625 21.709 38.7695 20 38.1738 18.9844C37.334 17.5781 35.9863 16.7969 34.375 16.7969H32.6758C32.959 15.9863 33.2031 14.8633 33.0176 13.7793C32.7051 11.9434 31.1523 10.8496 28.8086 10.8496V12.4121C30.8594 12.4121 31.3574 13.3008 31.4844 14.043C31.7285 15.459 30.8203 17.1777 30.8105 17.1973C30.6738 17.4414 30.6836 17.7344 30.8203 17.9688C30.957 18.2031 31.2207 18.3496 31.4941 18.3496H34.375C35.4395 18.3496 36.2695 18.8281 36.8262 19.7754C37.1289 20.293 37.5 21.4844 37.5 24.209H39.0625V24.2188Z" fill="#59ADA4"/>
</svg>
