<svg width="30" height="30" viewBox="0 0 30 30" fill="none" xmlns="http://www.w3.org/2000/svg">
<g clip-path="url(#clip0_40_128)">
<path d="M27.0979 2.90234C25.6631 1.43495 23.7392 0.652344 21.6848 0.652344C19.6305 0.652344 17.7392 1.43495 16.2718 2.90234L2.90222 16.2719C1.43483 17.7393 0.652222 19.6632 0.652222 21.685C0.652222 23.7067 1.43483 25.6632 2.90222 27.098C4.337 28.5328 6.26092 29.348 8.31526 29.348C10.3696 29.348 12.2935 28.5654 13.7283 27.098L27.1305 13.6958C28.5653 12.261 29.3805 10.3371 29.3805 8.28278C29.3805 6.22843 28.5653 4.33713 27.0979 2.90234ZM11.8696 25.2719C10.924 26.2176 9.65222 26.7393 8.31526 26.7393C6.97831 26.7393 5.70657 26.2176 4.76092 25.2719C3.81527 24.3263 3.29353 23.0545 3.29353 21.7176C3.29353 20.3806 3.81527 19.1089 4.76092 18.1632L10.2066 12.7176C11.7066 13.6958 15.3914 16.3371 17.3479 19.8263L11.8696 25.2719ZM25.2718 11.8697L19.0109 18.1306C16.924 14.7719 13.5979 12.2284 11.837 11.0219L18.1305 4.72843C19.0761 3.78278 20.3479 3.26104 21.6848 3.26104C23.0218 3.26104 24.2935 3.78278 25.2392 4.72843C26.1848 5.67408 26.7066 6.94582 26.7066 8.28278C26.7066 9.61973 26.2174 10.9241 25.2718 11.8697ZM18.75 8.05452C19.2066 8.51104 19.2066 9.22843 18.75 9.68495L17.1848 11.2502C16.9566 11.4784 16.6631 11.5763 16.3696 11.5763C16.0761 11.5763 15.7827 11.4784 15.5544 11.2502C15.0979 10.7936 15.0979 10.0763 15.5544 9.61974L17.1196 8.05452C17.5761 7.598 18.2935 7.598 18.75 8.05452ZM21.3587 5.41321C21.587 5.64147 21.75 6.00017 21.75 6.32626C21.75 6.65234 21.6196 7.01104 21.3587 7.2393C21.1305 7.46756 20.7718 7.6306 20.4457 7.6306C20.087 7.6306 19.7609 7.50017 19.5327 7.2393C19.3044 6.97843 19.1414 6.65234 19.1414 6.32626C19.1414 5.96756 19.2718 5.64147 19.5327 5.41321C19.7935 5.15234 20.1196 5.02191 20.4457 5.02191C20.8044 5.02191 21.1305 5.18495 21.3587 5.41321Z" fill="#53CC6E"/>
</g>
<defs>
<clipPath id="clip0_40_128">
<rect width="30" height="30" fill="white"/>
</clipPath>
</defs>
</svg>
