<svg width="30" height="30" viewBox="0 0 30 30" fill="none" xmlns="http://www.w3.org/2000/svg">
<path d="M6.37502 15.3937L7.35002 17.35C7.60557 17.8636 7.97878 18.3096 8.43927 18.6517C8.89976 18.9938 9.43452 19.2224 10 19.3188V19.6875C10 21.428 10.6914 23.0972 11.9221 24.3279C13.1528 25.5586 14.822 26.25 16.5625 26.25C18.303 26.25 19.9722 25.5586 21.2029 24.3279C22.4336 23.0972 23.125 21.428 23.125 19.6875V13.6938C24.0521 13.537 24.8866 13.0377 25.4629 12.2948C26.0393 11.5519 26.3155 10.6196 26.2369 9.6826C26.1583 8.74562 25.7305 7.87237 25.0384 7.2359C24.3463 6.59943 23.4403 6.2462 22.5 6.2462C21.5597 6.2462 20.6538 6.59943 19.9617 7.2359C19.2695 7.87237 18.8418 8.74562 18.7632 9.6826C18.6845 10.6196 18.9608 11.5519 19.5371 12.2948C20.1135 13.0377 20.9479 13.537 21.875 13.6938V19.6875C21.875 21.0965 21.3153 22.4477 20.319 23.444C19.3227 24.4403 17.9715 25 16.5625 25C15.1536 25 13.8023 24.4403 12.806 23.444C11.8097 22.4477 11.25 21.0965 11.25 19.6875V19.3188C11.8155 19.2224 12.3503 18.9938 12.8108 18.6517C13.2713 18.3096 13.6445 17.8636 13.9 17.35L14.875 15.3937C15.6948 14.7543 16.3575 13.9359 16.8125 13.001C17.2675 12.0662 17.5026 11.0397 17.5 10V6.875C17.498 6.43077 17.3777 5.99509 17.1514 5.61281C16.9251 5.23053 16.601 4.91545 16.2125 4.7C16.1563 4.47247 16.0372 4.26534 15.8688 4.10225C15.7005 3.93916 15.4897 3.82668 15.2605 3.77765C15.0313 3.72863 14.793 3.74503 14.5726 3.82498C14.3523 3.90493 14.1589 4.04522 14.0145 4.22983C13.8701 4.41444 13.7805 4.63593 13.7559 4.86902C13.7314 5.10211 13.7728 5.33741 13.8756 5.54806C13.9784 5.75871 14.1383 5.93623 14.3371 6.06034C14.5359 6.18446 14.7656 6.25018 15 6.25C15.3017 6.24805 15.5925 6.13706 15.8188 5.9375C15.9532 6.05406 16.0613 6.19799 16.1357 6.35967C16.21 6.52135 16.249 6.69704 16.25 6.875V10C16.2537 10.864 16.0562 11.717 15.6733 12.4915C15.2904 13.266 14.7325 13.9408 14.0438 14.4625L13.9938 14.5C13.0212 15.2273 11.8394 15.6203 10.625 15.6203C9.41061 15.6203 8.22881 15.2273 7.25627 14.5L7.20627 14.4688C6.51992 13.9434 5.96386 13.267 5.58123 12.492C5.19861 11.717 4.99973 10.8643 5.00002 10V6.875C5.00105 6.6166 5.08213 6.36488 5.23211 6.15446C5.38209 5.94404 5.5936 5.78527 5.83752 5.7C5.95825 5.87862 6.12313 6.02297 6.31613 6.11904C6.50914 6.21511 6.72371 6.25962 6.939 6.24826C7.15429 6.2369 7.36298 6.17005 7.54481 6.05421C7.72663 5.93836 7.8754 5.77746 7.97666 5.58713C8.07793 5.3968 8.12825 5.18352 8.12273 4.968C8.11721 4.75248 8.05604 4.54205 7.94517 4.35715C7.83429 4.17226 7.67748 4.01918 7.48997 3.91279C7.30245 3.80641 7.09061 3.75033 6.87502 3.75C6.64761 3.7518 6.425 3.81561 6.23117 3.93456C6.03734 4.0535 5.87963 4.22307 5.77502 4.425C5.20573 4.53517 4.69245 4.8398 4.32303 5.28675C3.95362 5.73369 3.75106 6.29515 3.75002 6.875V10C3.74741 11.0397 3.98258 12.0662 4.43754 13.001C4.89251 13.9359 5.55523 14.7543 6.37502 15.3937ZM22.5 10.625C22.3764 10.625 22.2556 10.5883 22.1528 10.5197C22.05 10.451 21.9699 10.3534 21.9226 10.2392C21.8753 10.125 21.8629 9.99931 21.887 9.87807C21.9111 9.75683 21.9707 9.64547 22.0581 9.55806C22.1455 9.47065 22.2569 9.41112 22.3781 9.38701C22.4993 9.36289 22.625 9.37527 22.7392 9.42257C22.8534 9.46988 22.951 9.54999 23.0197 9.65277C23.0884 9.75555 23.125 9.87639 23.125 10C23.125 10.1658 23.0592 10.3247 22.942 10.4419C22.8248 10.5592 22.6658 10.625 22.5 10.625ZM20 10C19.9985 9.53207 20.1283 9.07311 20.3748 8.67533C20.6212 8.27754 20.9743 7.9569 21.3939 7.74988C21.8136 7.54285 22.2829 7.45776 22.7485 7.50427C23.2141 7.55078 23.6573 7.72704 24.0277 8.01298C24.3981 8.29892 24.6808 8.68308 24.8437 9.12175C25.0066 9.56042 25.043 10.036 24.949 10.4944C24.8549 10.9528 24.6341 11.3755 24.3117 11.7146C23.9892 12.0537 23.5781 12.2955 23.125 12.4125V11.7875C23.542 11.6401 23.8935 11.35 24.1173 10.9685C24.3411 10.5869 24.4228 10.1386 24.348 9.70267C24.2732 9.26673 24.0467 8.87127 23.7086 8.58618C23.3704 8.3011 22.9423 8.14473 22.5 8.14473C22.0577 8.14473 21.6297 8.3011 21.2915 8.58618C20.9533 8.87127 20.7268 9.26673 20.652 9.70267C20.5772 10.1386 20.659 10.5869 20.8828 10.9685C21.1066 11.35 21.458 11.6401 21.875 11.7875V12.4125C21.3397 12.2743 20.8653 11.9625 20.5261 11.526C20.1868 11.0895 20.0018 10.5528 20 10ZM12.7813 16.7938C12.5806 17.1937 12.2727 17.5299 11.8919 17.7648C11.5111 17.9998 11.0725 18.1242 10.625 18.1242C10.1776 18.1242 9.73896 17.9998 9.35817 17.7648C8.97739 17.5299 8.66945 17.1937 8.46877 16.7938L8.31252 16.475H8.38752L8.73752 16.5813L8.91252 16.6313C9.08752 16.675 9.25627 16.7125 9.43127 16.7438C10.2089 16.877 11.0036 16.877 11.7813 16.7438C11.9521 16.7146 12.1209 16.6771 12.2875 16.6313L12.475 16.5813L12.8125 16.475H12.8938L12.7813 16.7938Z" fill="#248CDB"/>
</svg>
