<svg width="30" height="30" viewBox="0 0 30 30" fill="none" xmlns="http://www.w3.org/2000/svg">
<g clip-path="url(#clip0_40_111)">
<path d="M15 12.1875V16.875" stroke="#F47C38" stroke-width="1.1875" stroke-linecap="round" stroke-linejoin="round"/>
<path d="M13.3772 4.68571L3.06748 22.4973C2.90252 22.7823 2.81552 23.1057 2.81525 23.435C2.81497 23.7644 2.90144 24.0879 3.06593 24.3732C3.23043 24.6585 3.46716 24.8954 3.7523 25.0601C4.03745 25.2249 4.36095 25.3116 4.69025 25.3116H25.3097C25.639 25.3116 25.9625 25.2249 26.2476 25.0601C26.5328 24.8954 26.7695 24.6585 26.934 24.3732C27.0985 24.0879 27.185 23.7644 27.1847 23.435C27.1844 23.1057 27.0974 22.7823 26.9324 22.4973L16.6227 4.68571C16.458 4.40116 16.2214 4.16492 15.9366 4.00069C15.6517 3.83645 15.3287 3.75 15 3.75C14.6712 3.75 14.3482 3.83645 14.0634 4.00069C13.7785 4.16492 13.5419 4.40116 13.3772 4.68571Z" stroke="#F47C38" stroke-width="3" stroke-linecap="round" stroke-linejoin="round"/>
<path d="M15 22.5C15.7767 22.5 16.4062 21.8704 16.4062 21.0938C16.4062 20.3171 15.7767 19.6875 15 19.6875C14.2233 19.6875 13.5938 20.3171 13.5938 21.0938C13.5938 21.8704 14.2233 22.5 15 22.5Z" fill="#F47C38"/>
</g>
<defs>
<clipPath id="clip0_40_111">
<rect width="30" height="30" fill="white"/>
</clipPath>
</defs>
</svg>
